<svg width="1200" height="900" viewBox="0 0 1200 900" fill="none" xmlns="http://www.w3.org/2000/svg">
  <rect width="1200" height="900" rx="48" fill="#F8F4EE"/>
  <rect x="0" y="0" width="1200" height="900" rx="48" fill="url(#paint0_linear_1_2)"/>
  <rect x="66" y="84" width="1068" height="732" rx="36" fill="#FFFDF8"/>
  <rect x="120" y="132" width="440" height="610" rx="24" fill="#EFE5D6"/>
  <rect x="144" y="156" width="392" height="320" rx="20" fill="#F7EFE3"/>
  <rect x="170" y="182" width="340" height="268" rx="18" fill="#DCC9B2"/>
  <rect x="144" y="512" width="392" height="206" rx="20" fill="#F4ECE1"/>
  <rect x="184" y="548" width="110" height="92" rx="16" fill="#D7B28A"/>
  <rect x="306" y="548" width="96" height="92" rx="16" fill="#B7895F"/>
  <rect x="414" y="548" width="86" height="92" rx="16" fill="#E6D2B5"/>
  <circle cx="250" cy="288" r="74" fill="#F3EEE6"/>
  <circle cx="250" cy="288" r="56" fill="#D8D0C4"/>
  <path d="M220 250L238 214L250 246L262 214L280 250" fill="#D8D0C4"/>
  <rect x="640" y="126" width="430" height="648" rx="40" fill="#F7F1E8"/>
  <rect x="712" y="192" width="282" height="338" rx="82" fill="#FBFBFA" stroke="#D4D2CF" stroke-width="8"/>
  <path d="M796 266C796 243.909 813.909 226 836 226H890C912.091 226 930 243.909 930 266V356H796V266Z" fill="#2B6EF5"/>
  <path d="M788 356H938V384C938 419.346 909.346 448 874 448H852C816.654 448 788 419.346 788 384V356Z" fill="#B7BCC4"/>
  <path d="M806 548H900V610C900 653.078 865.078 688 822 688H806V548Z" fill="#C6CBD2"/>
  <rect x="818" y="596" width="72" height="22" rx="11" fill="#B0B5BC"/>
  <rect x="944" y="580" width="26" height="132" rx="13" fill="#8E939B"/>
  <rect x="992" y="580" width="26" height="132" rx="13" fill="#8E939B"/>
  <circle cx="932" cy="386" r="38" fill="#161616"/>
  <circle cx="918" cy="376" r="4.5" fill="#F5F5F5"/>
  <circle cx="946" cy="376" r="4.5" fill="#F5F5F5"/>
  <circle cx="932" cy="400" r="4" fill="#F5F5F5"/>
  <circle cx="916" cy="410" r="4" fill="#F5F5F5"/>
  <circle cx="948" cy="410" r="4" fill="#F5F5F5"/>
  <circle cx="308" cy="612" r="112" fill="#F9F7F1"/>
  <ellipse cx="314" cy="628" rx="104" ry="118" fill="#F2E7D4"/>
  <ellipse cx="314" cy="654" rx="88" ry="86" fill="#F7F2E9"/>
  <path d="M242 540L272 494L286 552L242 540Z" fill="#F2E7D4"/>
  <path d="M386 540L356 494L342 552L386 540Z" fill="#F2E7D4"/>
  <ellipse cx="288" cy="620" rx="12" ry="15" fill="#3B3B3B"/>
  <ellipse cx="342" cy="620" rx="12" ry="15" fill="#3B3B3B"/>
  <ellipse cx="316" cy="646" rx="14" ry="10" fill="#F09AA1"/>
  <path d="M304 664C312 670 320 670 328 664" stroke="#6B5A53" stroke-width="4" stroke-linecap="round"/>
  <path d="M262 646H220" stroke="#9D9388" stroke-width="4" stroke-linecap="round"/>
  <path d="M370 646H412" stroke="#9D9388" stroke-width="4" stroke-linecap="round"/>
  <path d="M262 660H220" stroke="#9D9388" stroke-width="4" stroke-linecap="round"/>
  <path d="M370 660H412" stroke="#9D9388" stroke-width="4" stroke-linecap="round"/>
  <path d="M268 718C286 754 302 776 320 782C338 776 352 754 366 718" stroke="#E5D8C4" stroke-width="28" stroke-linecap="round"/>
  <path d="M356 716C394 688 422 664 440 642C468 606 482 570 490 530" stroke="#C9925C" stroke-width="18" stroke-linecap="round"/>
  <rect x="716" y="642" width="280" height="66" rx="20" fill="#FFFFFF" fill-opacity="0.92"/>
  <text x="754" y="684" fill="#353535" font-family="Arial, Helvetica, sans-serif" font-size="30" font-weight="700">Comfortable home routine</text>
  <text x="740" y="120" fill="#897C6F" font-family="Arial, Helvetica, sans-serif" font-size="24" letter-spacing="6">CAT CARE SCENE</text>
  <defs>
    <linearGradient id="paint0_linear_1_2" x1="110" y1="78" x2="1080" y2="818" gradientUnits="userSpaceOnUse">
      <stop stop-color="#EFF3FF"/>
      <stop offset="1" stop-color="#F9F2E9"/>
    </linearGradient>
  </defs>
</svg>
